#N canvas -8 -8 1920 997 10;
#X declare -lib mrpeach;
#X obj 461 882 unpackOSC;
#X obj 461 862 o.io.slipserial;
#X msg 146 803 close;
#X obj 461 841 packOSC;
#X msg 193 861 devices;
#X floatatom 648 698 5 0 0 0 - - -;
#X obj 648 678 routeOSC /direction;
#X obj 759 698 routeOSC /flowrate;
#X obj 648 658 routeOSC /pump0;
#X floatatom 648 823 5 0 0 0 - - -;
#X obj 648 802 routeOSC /direction;
#X obj 759 822 routeOSC /flowrate;
#X obj 648 782 routeOSC /pump1;
#X floatatom 905 698 5 0 0 0 - - -;
#X obj 905 678 routeOSC /direction;
#X obj 1016 698 routeOSC /flowrate;
#X obj 905 658 routeOSC /pump2;
#X floatatom 906 824 5 0 0 0 - - -;
#X obj 906 804 routeOSC /direction;
#X obj 1017 824 routeOSC /flowrate;
#X obj 906 784 routeOSC /pump3;
#X obj 1244 73 hsl 128 30 1 20000 0 0 empty empty PUMP0 200 15 0 15
-262130 -1 -1 0 1;
#X obj 1244 125 hsl 128 30 1 20000 0 0 empty empty PUMP1 200 15 0 15
-204786 -1 -1 0 1;
#X obj 1244 177 hsl 128 30 1 20000 0 0 empty empty PUMP2 200 15 0 15
-204800 -1 -1 0 1;
#X obj 9 -50 print;
#X msg 461 733 /;
#X obj 461 773 list trim;
#X obj 1376 105 hradio 10 1 0 2 empty empty empty 0 -8 0 10 -262130
-1 -1 0;
#X obj 1244 105 hsl 128 10 1 20000 0 0 empty empty empty 0 0 0 20 -262130
-1 -1 0 1;
#X obj 1376 73 hradio 30 1 0 2 empty empty empty 0 -8 0 10 -262130
-66577 -66577 0;
#X obj 461 753 pack s f f f f f f f f;
#X obj 38 161 tgl 32 0 empty empty empty 0 0 0 12 -260097 -1 -1 1 1
;
#X obj 4 161 bng 32 250 50 0 empty empty bang_here 0 -8 0 12 -260097
-1 -1;
#X obj 461 820 spigot;
#X obj 1376 157 hradio 10 1 0 2 empty empty empty 0 -8 0 10 -204786
-1 -1 0;
#X obj 1244 157 hsl 128 10 1 20000 0 0 empty empty empty -2 -8 0 10
-204786 -1 -1 0 1;
#X obj 1376 209 hradio 10 1 0 2 empty empty empty 0 -8 0 10 -204800
-1 -1 0;
#X obj 1244 209 hsl 128 10 1 20000 0 0 empty empty empty -2 -8 0 10
-204800 -1 -1 0 1;
#X obj 608 185 hradio 10 1 0 2 empty empty Received_direction 25 6
0 10 -203904 -1 -1 0;
#X obj 1376 125 hradio 30 1 0 2 empty empty empty 0 -8 0 10 -204786
-1 -1 0;
#X obj 1376 177 hradio 30 1 0 2 empty empty empty 0 -8 0 10 -204800
-1 -1 0;
#X obj 607 149 hradio 30 1 0 2 empty empty Direction_Overide 0 -8 0
10 -203904 -1 -1 0;
#X text 45 -56 connect this to objects for debugging \; (prints to
console window);
#X obj 117 163 tgl 12 0 empty empty X=direct_drive_mode 20 6 0 12 -1
-1 -1 0 1;
#X obj 117 177 tgl 12 0 empty empty []=bang_to_push 20 6 0 12 -1 -1
-1 0 1;
#X obj 5 646 tgl 20 0 empty empty Open/close_connection 30 10 0 18
-1 -1 -1 0 1;
#X obj 5 669 tgl 12 0 empty empty prints_to_console 20 6 0 12 -1 -1
-1 0 1;
#X obj 648 717 s dirp0;
#X obj 1398 105 r dirp0;
#X obj 905 717 s dirp2;
#X obj 906 843 s dirp3;
#X obj 727 758 s frp0;
#X obj 1446 105 r frp0;
#X obj 648 842 s dirp1;
#X obj 1398 157 r dirp1;
#X obj 1398 209 r dirp2;
#X obj 673 210 r dirp3;
#X obj 1446 157 r frp1;
#X obj 1446 209 r frp2;
#X obj 461 713 r bang;
#X obj 1198 103 s bang;
#X obj 618 209 s bang;
#X obj 1199 155 s bang;
#X obj 1199 207 s bang;
#X obj 1150 103 s bwfw0;
#X obj 1151 155 s bwfw1;
#X obj 1151 207 s bwfw2;
#X obj 564 203 s bwfw3;
#X obj 477 694 r bwfw0;
#X obj 509 675 r bwfw1;
#X obj 541 656 r bwfw2;
#X obj 573 637 r bwfw3;
#X obj 1125 122 s flow0;
#X floatatom 1029 120 12 0 0 2 flowrate(micL/h) - -;
#X obj 1125 103 int;
#X floatatom 1030 172 12 0 0 2 flowrate(micL/h) - -;
#X obj 1126 155 int;
#X obj 1126 174 s flow1;
#X floatatom 1030 224 12 0 0 2 flowrate(micL/h) - -;
#X obj 1126 207 int;
#X obj 1126 226 s flow2;
#X obj 8 878 s operation;
#X obj 548 841 r operation;
#X obj 493 733 r inVal0;
#X obj 525 713 r inVal1;
#X obj 557 694 r inVal2;
#X obj 590 675 r inVal3;
#X obj 1027 40 tgl 20 0 empty empty Control_Pumps 30 10 0 18 -1 -1
-1 0 1;
#X obj 1027 63 tgl 12 0 empty empty manually 20 6 0 12 -1 -1 -1 0 1
;
#X obj 417 824 r data;
#X floatatom 1028 383 8 0 0 1 - - -;
#X obj 1028 421 s inVal0;
#X obj 1028 402 int;
#X obj 1028 363 expr 561069 * ($f2 / 2) * ($f2 / 2) / $f1;
#X obj 1028 343 r flow0;
#X obj 1208 323 r diameter0;
#X floatatom 1028 481 8 0 0 1 - - -;
#X obj 1028 500 int;
#X obj 1028 461 expr 561069 * ($f2 / 2) * ($f2 / 2) / $f1;
#X floatatom 1282 383 8 0 0 1 - - -;
#X obj 1282 402 int;
#X obj 1282 363 expr 561069 * ($f2 / 2) * ($f2 / 2) / $f1;
#X floatatom 1527 673 8 0 0 1 - - -;
#X obj 1527 692 int;
#X obj 1208 421 r diameter1;
#X obj 1462 323 r diameter2;
#X obj 1028 441 r flow1;
#X obj 1282 343 r flow2;
#X obj 1028 519 s inVal1;
#X obj 1282 421 s inVal2;
#X text 1347 411 delayUS=time between steps (in microseconds) delayUS=(3600*10E6*pi*thread_size*r*r)/
(micro_steps*steps_per_revolution*flowrate_in_uL_per_h) this system:
-thread_size= 0.3175 mm -micro_steps= 16 -steps_per_revolution= 400
(0.9 degrees) delayUS=inVal=561069*r*r/flowrate;
#X obj 828 720 r diameter0;
#X floatatom 648 758 12 0 0 1 - - -;
#X floatatom 648 883 12 0 0 1 - - -;
#X obj 828 845 r diameter1;
#X obj 727 883 s frp1;
#X floatatom 906 758 12 0 0 1 - - -;
#X obj 985 758 s frp2;
#X obj 1086 720 r diameter2;
#X floatatom 907 884 12 0 0 1 - - -;
#X obj 986 884 s frp3;
#X obj 1087 846 r diameter3;
#X obj 1028 303 tgl 20 0 empty empty Calculate_Stepping-times 30 10
0 18 -1 -1 -1 0 1;
#X obj 1028 326 tgl 12 0 empty empty in_microseconds 20 6 0 12 -1 -1
-1 0 1;
#X obj 625 634 tgl 20 0 empty empty Communication_to_and_from_microcontroller
30 10 0 18 -1 -1 -1 0 1;
#X obj 648 739 expr 561069 * ($f2 / 2) * ($f2 / 2) / $f1;
#X obj 648 864 expr 561069 * ($f2 / 2) * ($f2 / 2) / $f1;
#X obj 906 739 expr 561069 * ($f2 / 2) * ($f2 / 2) / $f1;
#X obj 907 865 expr 561069 * ($f2 / 2) * ($f2 / 2) / $f1;
#X obj 230 193 s push;
#X obj 1052 -302 tgl 20 0 empty empty Set_Syringe_Diameters 30 10 0
18 -1 -1 -1 0 1;
#X obj 1052 -279 tgl 12 0 empty empty in_mm 20 6 0 12 -1 -1 -1 0 1
;
#X obj 1052 -242 route 0 1 2 3 4 5 6 7;
#X floatatom 1052 -14 5 0 0 0 - - -;
#X obj 1052 -262 r radioP0;
#X obj 1126 5 s atomP0;
#X obj 1052 5 s diameter0;
#X msg 1052 -177 2.3;
#X msg 1052 -158 4.78;
#X msg 1052 -139 7.28;
#X msg 1088 -140 set 7.28mm_(SGE_2.5mL);
#X msg 1052 -62 1000;
#X msg 1088 -63 set 1000mm_(undefined);
#X msg 1052 -43 1000;
#X msg 1088 -44 set 1000mm_(undefined);
#X obj 1244 -244 route 0 1 2 3 4 5 6 7;
#X floatatom 1244 -16 5 0 0 0 - - -;
#X msg 1244 -179 2.3;
#X msg 1244 -160 4.78;
#X msg 1280 -161 set 4.78mm_(BD_1mL);
#X msg 1244 -64 1000;
#X msg 1280 -65 set 1000mm_(undefined);
#X msg 1244 -45 1000;
#X msg 1280 -46 set 1000mm_(undefined);
#X obj 1244 -264 r radioP1;
#X obj 1244 3 s diameter1;
#X obj 1318 3 s atomP1;
#X obj 1437 -246 route 0 1 2 3 4 5 6 7;
#X floatatom 1437 -18 5 0 0 0 - - -;
#X msg 1437 -181 2.3;
#X msg 1437 -162 4.78;
#X msg 1473 -163 set 4.78mm_(BD_1mL);
#X msg 1437 -143 7.28;
#X msg 1473 -144 set 7.28mm_(SGE_2.5mL);
#X msg 1437 -66 1000;
#X msg 1473 -67 set 1000mm_(undefined);
#X msg 1437 -47 1000;
#X msg 1473 -48 set 1000mm_(undefined);
#X obj 1437 -266 r radioP2;
#X obj 1437 1 s diameter2;
#X obj 1511 1 s atomP2;
#X obj 1252 601 route 0 1 2 3 4 5 6 7;
#X floatatom 1252 829 5 0 0 0 - - -;
#X obj 1252 581 r radioP3;
#X obj 1288 828 s atomP3;
#X obj 323 55 hradio 30 1 0 8 empty empty Pump0 -40 8 0 12 -257985
-1 -1 0;
#X symbolatom 323 85 30 0 0 0 - - -;
#X obj 239 -210 s radioP0;
#X obj 300 -205 r atomP0;
#X obj 323 109 hradio 30 1 0 8 empty empty Pump1 -40 8 0 12 -204786
-1 -1 0;
#X symbolatom 323 139 30 0 0 0 - - -;
#X obj 239 -160 s radioP1;
#X obj 300 -155 r atomP1;
#X obj 323 163 hradio 30 1 0 8 empty empty Pump2 -40 8 0 12 -204800
-1 -1 0;
#X symbolatom 323 193 30 0 0 0 - - -;
#X obj 238 -114 s radioP2;
#X obj 299 -109 r atomP2;
#X obj 606 74 hradio 30 1 0 8 empty empty Rotation_speed 0 -9 0 12
-203904 -1 -1 7;
#X symbolatom 607 108 20 0 0 0 - - -;
#X obj 708 123 s radioP3;
#X obj 645 124 r atomP3;
#X obj 345 -31 loadbang;
#X obj 366 790 tgl 30 0 empty empty empty 0 0 0 12 -260097 -1 -1 1
1;
#X obj 366 701 bng 32 250 50 0 empty empty push_settings 0 -8 0 12
-260097 -1 -1;
#X obj 398 750 delay 100;
#X obj 398 770 delay 200;
#X obj 366 668 r push;
#X obj 366 855 s pushback;
#X obj 288 219 r pushback;
#X obj 284 773 r directdrive;
#X obj 81 161 tgl 32 0 empty empty Mode 0 -8 0 12 -4032 -1 -1 1 1;
#X obj 142 144 s directdrive;
#X floatatom 1208 342 8 0 0 0 - - -;
#X floatatom 1527 630 8 0 0 0 - - -;
#X floatatom 1208 440 8 0 0 0 - - -;
#X floatatom 1462 342 8 0 0 0 - - -;
#X obj 8 712 hradio 20 1 0 5 empty empty empty 0 -8 0 10 -260097 -1
-1 0;
#X msg 8 758 open 0;
#X msg 8 818 open 3;
#X msg 8 798 open 2;
#X msg 8 778 open 1;
#X msg 56 757 set open0;
#X msg 56 816 set open3;
#X msg 56 797 set open2;
#X msg 56 777 set open1;
#X obj 56 855 s atomopenport;
#X obj 144 91 r atomopenport;
#X symbolatom 3 108 10 0 0 0 - - -;
#X obj 8 691 r deviceopen;
#X obj 144 71 s deviceopen;
#X obj 3 86 hradio 20 1 0 2 empty empty open 0 -7 0 10 -260097 -1 -1
0;
#X obj 4 19 tgl 20 0 empty empty Open/close_connection 30 10 0 12 -1
-1 -1 0 1;
#X obj 50 86 bng 20 250 50 0 empty empty close 0 -7 0 10 -260097 -1
-1;
#X obj 146 761 r close;
#X obj 80 87 s close;
#X obj 146 780 bng 20 250 50 0 empty empty empty 0 -8 0 12 -260097
-1 -1;
#X obj 193 838 bng 20 250 50 0 empty empty empty 0 -8 0 12 -260097
-1 -1;
#X obj 193 819 r devices;
#X obj 4 53 bng 20 250 50 0 empty empty print_devices 0 -8 0 10 -260097
-1 -1;
#X obj 27 54 s devices;
#X obj 3 126 tgl 20 0 empty empty Transfer_Settings 30 10 0 18 -1 -1
-1 0 1;
#X obj 885 122 bng 100 250 50 0 empty empty all_off 7 50 0 20 -260097
-1 -1;
#X obj 4 196 tgl 20 0 empty empty Control_Pumps 30 10 0 18 -1 -1 -1
0 1;
#X obj 1277 28 r FLRP0;
#X obj 1327 28 r FLRP1;
#X obj 1375 28 r FLRP2;
#X obj 1423 28 r FLRP3;
#X obj 1269 51 r DIR_P0;
#X obj 1323 51 r DIR_P1;
#X obj 1377 51 r DIR_P2;
#X obj 570 115 r DIR_P3;
#X obj 107 558 s FLRP0;
#X obj 107 577 s FLRP1;
#X obj 107 597 s FLRP2;
#X obj 564 560 s DIR_P0;
#X obj 564 579 s DIR_P1;
#X obj 564 598 s DIR_P2;
#X obj 111 252 hsl 700 60 1 20000 0 0 empty empty PUMP0 200 15 0 15
-262130 -1 -1 0 1;
#X obj 111 335 hsl 700 60 1 20000 0 0 empty empty PUMP1 200 15 0 15
-204786 -1 -1 0 1;
#X obj 111 418 hsl 700 60 1 32400 0 0 empty empty PUMP2 200 15 0 15
-204800 -1 -1 0 1;
#X obj 816 312 hradio 20 1 0 2 empty empty empty 0 -8 0 10 -262130
-1 -1 0;
#X obj 111 312 hsl 700 20 1 20000 0 0 empty empty empty 0 0 0 20 -262130
-1 -1 0 1;
#X obj 816 252 hradio 60 1 0 2 empty empty empty 0 -8 0 10 -262130
-66577 -66577 0;
#X obj 816 395 hradio 20 1 0 2 empty empty empty 0 -8 0 10 -204786
-1 -1 0;
#X obj 111 395 hsl 700 20 1 20000 0 0 empty empty empty -2 -8 0 10
-204786 -1 -1 0 1;
#X obj 816 478 hradio 20 1 0 2 empty empty empty 0 -8 0 10 -204800
-1 -1 0;
#X obj 111 478 hsl 700 20 1 20000 0 0 empty empty empty -2 -8 0 10
-204800 -1 -1 0 1;
#X obj 110 542 hsl 450 10 1 1000 0 0 empty empty empty -2 -8 0 10 -203904
-1 -1 0 1;
#X obj 816 335 hradio 60 1 0 2 empty empty empty 0 -8 0 10 -204786
-1 -1 0;
#X obj 816 418 hradio 60 1 0 2 empty empty empty 0 -8 0 10 -204800
-1 -1 0;
#X obj 587 311 r dirp0;
#X obj 635 311 r frp0;
#X obj 858 396 r dirp1;
#X obj 858 480 r dirp2;
#X obj 906 396 r frp1;
#X obj 906 480 r frp2;
#X obj 634 542 r frp3;
#X obj 63 309 outlet;
#X obj 64 358 outlet;
#X obj 64 407 outlet;
#X msg 1088 -178 set 2.3mm_(SGE_250micL);
#X msg 1280 -180 set 2.3mm_(SGE_250micL);
#X msg 1473 -182 set 2.3mm_(SGE_250micL);
#X obj 667 -32 loadbang;
#X msg 80 279 1;
#X obj 120 218 inlet;
#X obj 72 232 inlet;
#X obj 939 420 inlet;
#X obj 634 599 inlet;
#X obj 165 -19 loadbang;
#X msg 1280 -123 set 12.07mm_(BD_5mL);
#X msg 1473 -125 set 12.07mm_(BD_5mL);
#X msg 1052 -101 9;
#X msg 1244 -103 9;
#X msg 1437 -105 9;
#X msg 1088 -102 set 9mm_(Terumo_3mL);
#X msg 1088 -83 set 12.07mm_(BD_5mL);
#X msg 1052 -82 12.07;
#X msg 1052 -120 4.78;
#X msg 1088 -121 set 4.78mm_(Terumo_1mL);
#X msg 1244 -122 4.78;
#X msg 1437 -124 4.78;
#X msg 1244 -84 12.07;
#X msg 1437 -86 12.07;
#X msg 1280 -104 set 9mm_(Terumo_3mL);
#X msg 1473 -106 set 9mm_(Terumo_3mL);
#X msg 1280 -85 set 12.07mm_(BD_5mL);
#X msg 1473 -87 set 12.07mm_(BD_5mL);
#X msg 1088 -159 set 4.78mm_(BD_1mL);
#X obj 8 736 route 0 1 2 3 4;
#X msg 56 836 set open4;
#X msg 8 837 open 4;
#X obj 1359 397 tgl 12 0 empty empty Calculation 20 6 0 12 -1 -1 -1
0 1;
#X obj 1252 542 tgl 12 0 empty empty Rotation 20 6 0 12 -1 -1 -1 0
1;
#X msg 1280 646 set Stopped;
#X obj 1252 878 s RotSec;
#X obj 1527 609 r RotSec;
#X obj 1527 651 expr (1000*1000*$f1)/(400*16);
#X floatatom 1399 667 5 0 0 0 - - -;
#X obj 1399 645 expr ($f1*$f2)/360;
#X text 1442 621 Angle input;
#X text 1525 589 Stepper Speed;
#X obj 1399 717 metro;
#X obj 1399 741 bng 15 250 50 0 empty empty empty 17 7 0 10 -262144
-1 -1;
#X obj 1399 599 r RotSec;
#X msg 1419 621 360;
#X obj 1399 767 0;
#X obj 1429 741 delay;
#X obj 1437 717 expr $f1/2;
#X obj 1427 767 1;
#X obj 1399 688 expr $f1*2000;
#X obj 550 -44 s ffrp2;
#X obj 550 -92 s ffrp1;
#X obj 550 -142 s ffrp0;
#X obj 886 15 bng 100 250 50 0 empty empty Bang! 7 50 0 30 -260097
-1 -1;
#X obj 423 -56 tgl 8 0 empty empty PUMP2 12 4 0 12 -1 -1 -1 0 1;
#X obj 384 -153 tgl 8 0 empty empty PUMP0 12 4 0 12 -1 -1 -1 0 1;
#X obj 404 -104 tgl 8 0 empty empty PUMP1 12 4 0 12 -1 -1 -1 0 1;
#X obj 434 -205 t b b b;
#X msg 434 -159 4000;
#X msg 453 -109 4000;
#X msg 473 -61 15000;
#X msg 1252 646 0.0001;
#X obj 1399 812 s DIR_P3;
#X obj 1527 711 s inVal3;
#X msg 1280 704 set 0.1_Hz;
#X obj 1252 854 expr 1/$f1;
#X msg 1252 704 0.1;
#X msg 1252 723 0.15;
#X msg 1252 685 0.05;
#X msg 1252 666 0.01;
#X msg 1252 800 0.5;
#X msg 1252 781 0.4;
#X msg 1252 761 0.3;
#X msg 1252 742 0.2;
#X msg 1281 781 set 0.4_Hz;
#X msg 1280 800 set 0.5_Hz;
#X msg 1280 762 set 0.3_Hz;
#X msg 1280 742 set 0.2_Hz;
#X msg 1280 723 set 0.15_Hz;
#X msg 1280 685 set 0.05_Hz;
#X msg 1280 666 set 0.01_Hz;
#X msg 843 228 0;
#X obj 324 28 tgl 20 0 empty empty Syringe_Diameters 30 10 0 12 -1
-1 -1 1 1;
#X msg 1437 -201 12.07;
#X msg 1244 -199 12.07;
#X msg 1052 -197 12.07;
#X msg 1244 -141 8.66;
#X msg 1280 -142 set 8.66_(Terumo_2_5);
#X text 1316 532;
#X msg 1088 -198 set 12.07mm_(BD_5ml);
#X msg 1280 -200 set 12.07mm_(BD_5ml);
#X msg 1473 -202 set 12.07mm_(BD_5ml);
#X text 1250 563 Hertz input;
#X obj 606 27 tgl 20 0 empty empty Rotation_Control 30 10 0 12 -1 -1
-1 0 1;
#X connect 0 0 8 0;
#X connect 1 0 0 0;
#X connect 2 0 81 0;
#X connect 3 0 1 0;
#X connect 4 0 81 0;
#X connect 5 0 47 0;
#X connect 6 0 5 0;
#X connect 6 1 7 0;
#X connect 7 0 125 0;
#X connect 8 0 6 0;
#X connect 8 1 12 0;
#X connect 9 0 53 0;
#X connect 10 0 9 0;
#X connect 10 1 11 0;
#X connect 11 0 126 0;
#X connect 12 0 10 0;
#X connect 12 1 16 0;
#X connect 13 0 49 0;
#X connect 14 0 13 0;
#X connect 14 1 15 0;
#X connect 15 0 127 0;
#X connect 16 0 14 0;
#X connect 16 1 20 0;
#X connect 17 0 50 0;
#X connect 18 0 17 0;
#X connect 18 1 19 0;
#X connect 19 0 128 0;
#X connect 20 0 18 0;
#X connect 21 0 60 0;
#X connect 21 0 74 0;
#X connect 22 0 62 0;
#X connect 22 0 76 0;
#X connect 23 0 63 0;
#X connect 23 0 79 0;
#X connect 25 0 30 0;
#X connect 26 0 33 0;
#X connect 29 0 60 0;
#X connect 29 0 64 0;
#X connect 30 0 26 0;
#X connect 32 0 129 0;
#X connect 33 0 3 0;
#X connect 39 0 62 0;
#X connect 39 0 65 0;
#X connect 40 0 63 0;
#X connect 40 0 66 0;
#X connect 41 0 61 0;
#X connect 41 0 67 0;
#X connect 45 0 46 0;
#X connect 48 0 27 0;
#X connect 52 0 28 0;
#X connect 54 0 34 0;
#X connect 55 0 36 0;
#X connect 56 0 38 0;
#X connect 57 0 35 0;
#X connect 58 0 37 0;
#X connect 59 0 25 0;
#X connect 68 0 30 1;
#X connect 69 0 30 3;
#X connect 70 0 30 5;
#X connect 71 0 30 7;
#X connect 73 0 72 0;
#X connect 74 0 73 0;
#X connect 75 0 77 0;
#X connect 76 0 75 0;
#X connect 78 0 80 0;
#X connect 79 0 78 0;
#X connect 82 0 1 1;
#X connect 83 0 30 2;
#X connect 84 0 30 4;
#X connect 85 0 30 6;
#X connect 86 0 30 8;
#X connect 87 0 88 0;
#X connect 89 0 3 0;
#X connect 90 0 92 0;
#X connect 92 0 91 0;
#X connect 93 0 90 0;
#X connect 94 0 93 0;
#X connect 95 0 202 0;
#X connect 96 0 97 0;
#X connect 97 0 108 0;
#X connect 98 0 96 0;
#X connect 99 0 100 0;
#X connect 100 0 109 0;
#X connect 101 0 99 0;
#X connect 102 0 103 0;
#X connect 103 0 334 0;
#X connect 104 0 204 0;
#X connect 105 0 205 0;
#X connect 106 0 98 0;
#X connect 107 0 101 0;
#X connect 111 0 125 1;
#X connect 112 0 51 0;
#X connect 113 0 115 0;
#X connect 114 0 126 1;
#X connect 116 0 117 0;
#X connect 118 0 127 1;
#X connect 119 0 120 0;
#X connect 121 0 128 1;
#X connect 122 0 123 0;
#X connect 125 0 112 0;
#X connect 126 0 113 0;
#X connect 127 0 116 0;
#X connect 128 0 119 0;
#X connect 130 0 131 0;
#X connect 132 0 356 0;
#X connect 132 0 360 0;
#X connect 132 1 137 0;
#X connect 132 1 270 0;
#X connect 132 2 138 0;
#X connect 132 2 298 0;
#X connect 132 3 139 0;
#X connect 132 3 140 0;
#X connect 132 4 288 0;
#X connect 132 4 289 0;
#X connect 132 5 282 0;
#X connect 132 5 285 0;
#X connect 132 6 287 0;
#X connect 132 6 286 0;
#X connect 132 7 141 0;
#X connect 132 7 142 0;
#X connect 132 8 143 0;
#X connect 132 8 144 0;
#X connect 133 0 136 0;
#X connect 134 0 132 0;
#X connect 137 0 133 0;
#X connect 138 0 133 0;
#X connect 139 0 133 0;
#X connect 140 0 135 0;
#X connect 141 0 133 0;
#X connect 142 0 135 0;
#X connect 143 0 133 0;
#X connect 144 0 135 0;
#X connect 145 0 355 0;
#X connect 145 0 361 0;
#X connect 145 1 147 0;
#X connect 145 1 271 0;
#X connect 145 2 148 0;
#X connect 145 2 149 0;
#X connect 145 3 357 0;
#X connect 145 3 358 0;
#X connect 145 4 290 0;
#X connect 145 4 280 0;
#X connect 145 5 283 0;
#X connect 145 5 294 0;
#X connect 145 6 292 0;
#X connect 145 6 296 0;
#X connect 145 7 150 0;
#X connect 145 7 151 0;
#X connect 145 8 152 0;
#X connect 145 8 153 0;
#X connect 146 0 155 0;
#X connect 147 0 146 0;
#X connect 148 0 146 0;
#X connect 149 0 156 0;
#X connect 150 0 146 0;
#X connect 151 0 156 0;
#X connect 152 0 146 0;
#X connect 153 0 156 0;
#X connect 154 0 145 0;
#X connect 157 0 354 0;
#X connect 157 0 362 0;
#X connect 157 1 159 0;
#X connect 157 1 272 0;
#X connect 157 2 160 0;
#X connect 157 2 161 0;
#X connect 157 3 162 0;
#X connect 157 3 163 0;
#X connect 157 4 291 0;
#X connect 157 4 281 0;
#X connect 157 5 284 0;
#X connect 157 5 295 0;
#X connect 157 6 293 0;
#X connect 157 6 297 0;
#X connect 157 7 164 0;
#X connect 157 7 165 0;
#X connect 157 8 166 0;
#X connect 157 8 167 0;
#X connect 158 0 169 0;
#X connect 159 0 158 0;
#X connect 160 0 158 0;
#X connect 161 0 170 0;
#X connect 162 0 158 0;
#X connect 163 0 170 0;
#X connect 164 0 158 0;
#X connect 165 0 170 0;
#X connect 166 0 158 0;
#X connect 167 0 170 0;
#X connect 168 0 157 0;
#X connect 171 0 332 0;
#X connect 171 0 304 0;
#X connect 171 1 340 0;
#X connect 171 1 351 0;
#X connect 171 2 339 0;
#X connect 171 2 350 0;
#X connect 171 3 337 0;
#X connect 171 3 335 0;
#X connect 171 4 338 0;
#X connect 171 4 349 0;
#X connect 171 5 344 0;
#X connect 171 5 348 0;
#X connect 171 6 343 0;
#X connect 171 6 347 0;
#X connect 171 7 342 0;
#X connect 171 7 345 0;
#X connect 171 8 341 0;
#X connect 171 8 346 0;
#X connect 172 0 336 0;
#X connect 173 0 171 0;
#X connect 175 0 177 0;
#X connect 178 0 176 0;
#X connect 179 0 181 0;
#X connect 182 0 180 0;
#X connect 183 0 185 0;
#X connect 186 0 184 0;
#X connect 187 0 189 0;
#X connect 190 0 188 0;
#X connect 191 0 175 0;
#X connect 191 0 179 0;
#X connect 191 0 183 0;
#X connect 191 0 187 0;
#X connect 192 0 33 1;
#X connect 192 0 197 0;
#X connect 193 0 192 0;
#X connect 193 0 194 0;
#X connect 193 0 195 0;
#X connect 194 0 30 0;
#X connect 195 0 192 0;
#X connect 196 0 193 0;
#X connect 198 0 31 0;
#X connect 199 0 192 0;
#X connect 200 0 201 0;
#X connect 202 0 93 1;
#X connect 203 0 307 0;
#X connect 204 0 98 1;
#X connect 205 0 101 1;
#X connect 206 0 299 0;
#X connect 207 0 81 0;
#X connect 208 0 81 0;
#X connect 209 0 81 0;
#X connect 210 0 81 0;
#X connect 211 0 215 0;
#X connect 212 0 215 0;
#X connect 213 0 215 0;
#X connect 214 0 215 0;
#X connect 216 0 217 0;
#X connect 218 0 206 0;
#X connect 220 0 219 0;
#X connect 222 0 224 0;
#X connect 223 0 225 0;
#X connect 225 0 2 0;
#X connect 226 0 4 0;
#X connect 227 0 226 0;
#X connect 228 0 229 0;
#X connect 231 0 274 0;
#X connect 231 0 352 0;
#X connect 233 0 21 0;
#X connect 234 0 22 0;
#X connect 235 0 23 0;
#X connect 237 0 29 0;
#X connect 238 0 39 0;
#X connect 239 0 40 0;
#X connect 240 0 41 0;
#X connect 247 0 241 0;
#X connect 247 0 267 0;
#X connect 248 0 242 0;
#X connect 248 0 268 0;
#X connect 249 0 243 0;
#X connect 249 0 269 0;
#X connect 252 0 244 0;
#X connect 258 0 245 0;
#X connect 259 0 246 0;
#X connect 260 0 250 0;
#X connect 261 0 251 0;
#X connect 262 0 253 0;
#X connect 263 0 255 0;
#X connect 264 0 254 0;
#X connect 265 0 256 0;
#X connect 266 0 257 0;
#X connect 270 0 135 0;
#X connect 271 0 156 0;
#X connect 272 0 170 0;
#X connect 273 0 231 0;
#X connect 274 0 247 0;
#X connect 274 0 248 0;
#X connect 274 0 249 0;
#X connect 275 0 247 0;
#X connect 276 0 248 0;
#X connect 277 0 249 0;
#X connect 279 0 200 0;
#X connect 280 0 156 0;
#X connect 281 0 170 0;
#X connect 282 0 133 0;
#X connect 283 0 146 0;
#X connect 284 0 158 0;
#X connect 285 0 135 0;
#X connect 286 0 135 0;
#X connect 287 0 133 0;
#X connect 288 0 133 0;
#X connect 289 0 135 0;
#X connect 290 0 146 0;
#X connect 291 0 158 0;
#X connect 292 0 146 0;
#X connect 293 0 158 0;
#X connect 294 0 156 0;
#X connect 295 0 170 0;
#X connect 296 0 156 0;
#X connect 297 0 170 0;
#X connect 298 0 135 0;
#X connect 299 0 207 0;
#X connect 299 0 211 0;
#X connect 299 1 210 0;
#X connect 299 1 214 0;
#X connect 299 2 209 0;
#X connect 299 2 213 0;
#X connect 299 3 208 0;
#X connect 299 3 212 0;
#X connect 299 4 300 0;
#X connect 299 4 301 0;
#X connect 300 0 215 0;
#X connect 301 0 81 0;
#X connect 304 0 174 0;
#X connect 306 0 203 0;
#X connect 307 0 102 0;
#X connect 308 0 320 0;
#X connect 309 0 308 0;
#X connect 312 0 313 0;
#X connect 312 0 317 0;
#X connect 313 0 316 0;
#X connect 314 0 309 0;
#X connect 314 0 315 0;
#X connect 315 0 309 1;
#X connect 316 0 333 0;
#X connect 317 0 319 0;
#X connect 318 0 317 1;
#X connect 319 0 333 0;
#X connect 320 0 312 1;
#X connect 320 0 312 0;
#X connect 320 0 318 0;
#X connect 324 0 328 0;
#X connect 328 0 329 0;
#X connect 328 1 330 0;
#X connect 328 2 331 0;
#X connect 329 0 323 0;
#X connect 330 0 322 0;
#X connect 331 0 321 0;
#X connect 332 0 172 0;
#X connect 335 0 174 0;
#X connect 336 0 305 0;
#X connect 337 0 172 0;
#X connect 338 0 172 0;
#X connect 339 0 172 0;
#X connect 340 0 172 0;
#X connect 341 0 172 0;
#X connect 342 0 172 0;
#X connect 343 0 172 0;
#X connect 344 0 172 0;
#X connect 345 0 174 0;
#X connect 346 0 174 0;
#X connect 347 0 174 0;
#X connect 348 0 174 0;
#X connect 349 0 174 0;
#X connect 350 0 174 0;
#X connect 351 0 174 0;
#X connect 352 0 187 0;
#X connect 354 0 158 0;
#X connect 355 0 146 0;
#X connect 356 0 133 0;
#X connect 357 0 146 0;
#X connect 358 0 156 0;
#X connect 360 0 135 0;
#X connect 361 0 156 0;
#X connect 362 0 170 0;
#X coords 0 0 1000 500 1000 500 1 0 0;
