#N canvas -8 -8 1920 997 10;
#X declare -lib mrpeach;
#X floatatom -23563 -95 10 0 0 2 Pump0(uL/h) - -;
#X floatatom -23564 73 10 0 0 2 Pump2(uL/h) - -;
#X floatatom -23564 -9 10 0 0 2 Pump1(uL/h) - -;
#X obj -23609 153 s p0;
#X obj -23603 -102 r p0;
#X obj -22669 153 s p1;
#X obj -23597 -9 r p1;
#X obj -23596 57 r p2;
#X obj -23116 153 s p2;
#X obj -23296 -365 r ffrp0;
#X obj -22706 -365 r ffrp2;
#X obj -22960 -363 r ffrp3;
#X obj -23608 -366 r ffrp1;
#X obj -23610 -347 PSPumpGOP;
#X connect 4 0 0 0;
#X connect 6 0 2 0;
#X connect 7 0 1 0;
#X connect 9 0 13 1;
#X connect 10 0 13 3;
#X connect 11 0 13 2;
#X connect 12 0 13 0;
#X connect 13 0 3 0;
#X connect 13 1 8 0;
#X connect 13 2 5 0;
